<svg width="20" height="20" fill="none" viewBox="0 0 20 20" xmlns="http://www.w3.org/2000/svg"><path d="M5 2.5V12.5" stroke="currentColor" fill="none" stroke-width="2" stroke-linecap="round" stroke-linejoin="round"/><path d="M15 7.5C16.3807 7.5 17.5 6.38071 17.5 5C17.5 3.61929 16.3807 2.5 15 2.5C13.6193 2.5 12.5 3.61929 12.5 5C12.5 6.38071 13.6193 7.5 15 7.5Z" stroke="currentColor" fill="none" stroke-width="2" stroke-linecap="round" stroke-linejoin="round"/><path d="M5 17.5C6.38071 17.5 7.5 16.3807 7.5 15C7.5 13.6193 6.38071 12.5 5 12.5C3.61929 12.5 2.5 13.6193 2.5 15C2.5 16.3807 3.61929 17.5 5 17.5Z" stroke="currentColor" fill="none" stroke-width="2" stroke-linecap="round" stroke-linejoin="round"/><path d="M15 7.5C15 9.48912 14.2098 11.3968 12.8033 12.8033C11.3968 14.2098 9.48912 15 7.5 15" stroke="currentColor" fill="none" stroke-width="2" stroke-linecap="round" stroke-linejoin="round"/></svg>
