<svg width="20" height="20" viewBox="0 0 20 20" xmlns="http://www.w3.org/2000/svg" xmlns:xlink="http://www.w3.org/1999/xlink" version="1.1"><path d="M10.0001 18.3333C14.6025 18.3333 18.3334 14.6024 18.3334 10C18.3334 5.39762 14.6025 1.66666 10.0001 1.66666C5.39771 1.66666 1.66675 5.39762 1.66675 10C1.66675 14.6024 5.39771 18.3333 10.0001 18.3333Z" stroke="currentColor" fill="none" stroke-width="2" stroke-linecap="round" stroke-linejoin="round"/><path d="M7.57495 7.5C7.77087 6.94306 8.15758 6.47342 8.66658 6.17428C9.17558 5.87513 9.77403 5.76578 10.3559 5.86559C10.9378 5.96541 11.4656 6.26794 11.8458 6.71961C12.2261 7.17128 12.4342 7.74294 12.4333 8.33333C12.4333 10 9.93328 10.8333 9.93328 10.8333" stroke="currentColor" fill="none" stroke-width="2" stroke-linecap="round" stroke-linejoin="round"/><path d="M10 14.1667H10.0083" stroke="currentColor" fill="none" stroke-width="2" stroke-linecap="round" stroke-linejoin="round"/></svg>