<svg id="Layer_1" data-name="Layer 1" xmlns="http://www.w3.org/2000/svg" xmlns:xlink="http://www.w3.org/1999/xlink" viewBox="0 0 804.96 670.91"><defs><style>.cls-1{fill:url(#linear-gradient);}.cls-2{fill:url(#linear-gradient-2);}.cls-3{fill:url(#linear-gradient-3);}.cls-4{fill:url(#linear-gradient-4);}.cls-5{fill:url(#linear-gradient-5);}.cls-6{fill:url(#linear-gradient-6);}.cls-7{fill:url(#linear-gradient-7);}.cls-8{fill:url(#linear-gradient-8);}.cls-9{fill:url(#linear-gradient-9);}</style><linearGradient id="linear-gradient" x1="257.42" y1="413.04" x2="770.09" y2="413.04" gradientTransform="translate(129.21 -102.09) rotate(13.37)" gradientUnits="userSpaceOnUse"><stop offset="0" stop-color="#15021e"/><stop offset="0.32" stop-color="#8011c9"/><stop offset="0.39" stop-color="#9a13f2"/><stop offset="0.53" stop-color="#b110cc"/><stop offset="0.75" stop-color="#ce0d9b"/><stop offset="0.91" stop-color="#e10b7c"/><stop offset="1" stop-color="#e80a70"/></linearGradient><linearGradient id="linear-gradient-2" x1="284.58" y1="509.87" x2="770.18" y2="509.87" xlink:href="#linear-gradient"/><linearGradient id="linear-gradient-3" x1="99.39" y1="521.04" x2="584.98" y2="521.04" xlink:href="#linear-gradient"/><linearGradient id="linear-gradient-4" x1="203.22" y1="608.1" x2="677.61" y2="608.1" xlink:href="#linear-gradient"/><linearGradient id="linear-gradient-5" x1="191.95" y1="422.91" x2="666.55" y2="422.91" xlink:href="#linear-gradient"/><linearGradient id="linear-gradient-6" x1="126.49" y1="436.53" x2="538.15" y2="436.53" xlink:href="#linear-gradient"/><linearGradient id="linear-gradient-7" x1="99.47" y1="617.97" x2="612.14" y2="617.97" xlink:href="#linear-gradient"/><linearGradient id="linear-gradient-8" x1="331.41" y1="594.48" x2="743.08" y2="594.48" xlink:href="#linear-gradient"/><linearGradient id="linear-gradient-9" x1="820.91" y1="722.85" x2="969.58" y2="758.2" gradientTransform="translate(1133.61 1683.44) rotate(-150)" gradientUnits="userSpaceOnUse"><stop offset="0" stop-color="#9a13f2"/><stop offset="0.47" stop-color="#c30eae"/><stop offset="0.82" stop-color="#de0b81"/><stop offset="1" stop-color="#e80a70"/></linearGradient></defs><path class="cls-1" d="M763.24,558.42q-1.05,5.9-2.32,11.81c.65-3.14,1.23-6.27,1.74-9.41q.55-3.35,1-6.68c.22-1.62.42-3.23.61-4.84.13-1.18.27-2.35.38-3.51.15-1.36.27-2.72.38-4.07s.2-2.41.28-3.62c0-.62.1-1.25.12-1.87.07-.88.11-1.76.16-2.64.07-1.35.12-2.7.17-4.06s.08-2.69.11-4,0-2.51,0-3.76c0-.47,0-.93,0-1.38l0-2.71c0-.37,0-.74,0-1.12,0-1,0-2-.08-3,0-.11,0-.22,0-.35,0-1.2-.09-2.4-.15-3.61,0-.25,0-.49,0-.73-.05-1-.11-2.05-.19-3.07q0-.5-.06-1c-.07-1.12-.15-2.23-.25-3.34-.11-1.33-.22-2.66-.36-4-.1-1.05-.21-2.08-.33-3.11s-.24-2.22-.39-3.33c0-.15,0-.3-.06-.44-.08-.71-.18-1.41-.28-2.11-.13-1-.26-1.89-.4-2.84-.17-1.15-.35-2.3-.54-3.44l-.21-1.25q-.25-1.53-.54-3.06c0-.08,0-.16,0-.24-.2-1.08-.41-2.17-.63-3.25-.08-.45-.17-.89-.27-1.33-.13-.73-.29-1.46-.45-2.19s-.26-1.23-.41-1.85c-.17-.85-.37-1.71-.58-2.57,0-.21-.09-.41-.14-.61-.2-.87-.41-1.73-.62-2.58-.16-.66-.33-1.31-.5-2s-.37-1.45-.56-2.16c-.28-1-.57-2.09-.86-3.11-.2-.73-.4-1.46-.62-2.19s-.47-1.61-.72-2.42c-.08-.3-.17-.58-.26-.86-.24-.8-.49-1.6-.74-2.39-.2-.63-.41-1.25-.61-1.87s-.39-1.21-.6-1.82-.36-1.08-.55-1.62c-.26-.79-.53-1.58-.83-2.37-.12-.37-.25-.74-.4-1.12-.3-.86-.61-1.72-.94-2.58-.15-.4-.3-.81-.46-1.21-.24-.65-.48-1.29-.74-1.94s-.56-1.43-.84-2.13c-.14-.36-.29-.73-.44-1.09-.41-1-.82-2-1.25-3s-.83-2-1.27-3c-.21-.5-.43-1-.66-1.51-.29-.66-.59-1.31-.89-2-.5-1.11-1-2.2-1.54-3.31-.33-.72-.68-1.45-1-2.18s-.85-1.75-1.3-2.63-.94-1.88-1.42-2.8a.08.08,0,0,0,0-.06c-.57-1.13-1.17-2.25-1.77-3.36s-1.21-2.25-1.84-3.37-1.09-2-1.65-2.93c-.26-.44-.51-.89-.77-1.32-.39-.66-.78-1.33-1.18-2-.61-1-1.24-2.07-1.87-3.09-.35-.59-.72-1.17-1.09-1.74s-.85-1.36-1.3-2l-.09-.15c-.63-1-1.27-2-1.92-2.94s-1.17-1.76-1.78-2.64-1.34-1.95-2-2.92c-.1-.13-.18-.26-.28-.38-.43-.63-.88-1.26-1.33-1.87s-.83-1.15-1.25-1.71a4.33,4.33,0,0,0-.27-.37c-.68-.94-1.38-1.87-2.09-2.79q-5.68-7.51-12-14.55-.87-1-1.77-1.95-4.85-5.36-10-10.4c-1.53-1.51-3.08-3-4.64-4.43A242.8,242.8,0,0,0,287.66,461.8h0c-.13.46-.25.92-.36,1.39l-.08.33c-.29,1.14-.57,2.29-.82,3.44l-.08.33c-.1.46-.2.92-.29,1.37-.14.62-.27,1.23-.39,1.84q-.52,2.58-.94,5.16c-.19,1.16-.38,2.32-.53,3.49v.06c-.09.57-.16,1.14-.23,1.71a148.72,148.72,0,0,0-.52,33.77c.06.58.12,1.18.18,1.78s.13,1.18.21,1.77l.18,1.44c.2,1.56.43,3.11.69,4.66.17,1.09.37,2.18.58,3.27s.44,2.35.7,3.52c.11.58.24,1.17.38,1.75.26,1.17.53,2.32.83,3.48a148.17,148.17,0,0,0,10.24,28.42c.25.53.51,1.07.77,1.59s.52,1.06.8,1.59.53,1,.81,1.57.54,1,.83,1.56.55,1,.85,1.56c.49.9,1,1.79,1.51,2.68A242.88,242.88,0,0,1,502.2,208.77c2.57-.1,5.15-.17,7.73-.18H510c2.2,0,4.38,0,6.58.06,2.9,0,5.82.16,8.71.33,1.14.06,2.28.13,3.42.22,5.26.37,10.5.9,15.71,1.63,1.26.15,2.53.33,3.79.54s2.47.38,3.71.59l.13,0c.9.16,1.82.3,2.72.48.45.08.89.17,1.34.24,1.15.21,2.3.44,3.44.68s2.51.5,3.76.78c1,.22,2,.44,3,.68,1.64.37,3.3.76,4.92,1.18,1,.26,2.08.52,3.1.8l.22.05,3.65,1c1.23.35,2.46.71,3.68,1.08s2.44.74,3.63,1.13l.07,0c1.16.36,2.32.75,3.46,1.13l.28.09,3,1,.71.26c1.13.4,2.25.8,3.36,1.21l3.09,1.17.94.37c1.06.4,2.1.83,3.13,1.26s2,.82,3,1.25c.36.15.73.29,1.08.46.78.33,1.56.67,2.33,1l1.18.51c.77.34,1.54.7,2.31,1.06l1.28.58,2.29,1.09c.36.17.72.34,1.07.53.93.43,1.83.88,2.73,1.34l.47.23c.94.47,1.89,1,2.83,1.46.32.15.63.32,1,.5.7.36,1.4.75,2.1,1.12l1.27.68c1,.52,1.89,1.05,2.82,1.58s1.92,1.08,2.86,1.64c.33.18.66.38,1,.58.86.5,1.71,1,2.53,1.5,1.43.87,2.85,1.74,4.26,2.64.79.49,1.57,1,2.37,1.51l.83.55c.71.46,1.42.94,2.12,1.41s1.61,1.08,2.42,1.65l.25.16c.85.59,1.7,1.18,2.54,1.78.33.25.69.5,1,.74.94.68,1.88,1.35,2.81,2,.77.57,1.54,1.14,2.29,1.73.57.42,1.13.85,1.69,1.29.13.09.24.17.36.27.89.69,1.78,1.39,2.67,2.11s1.59,1.27,2.38,1.92c1,.84,2.06,1.69,3.06,2.56.83.7,1.66,1.41,2.48,2.13l.82.71c.59.52,1.19,1,1.78,1.58l1.17,1.05c.84.75,1.66,1.53,2.49,2.3.1.09.19.19.3.28.73.68,1.47,1.38,2.19,2.09l.81.77L682.8,279c1.23,1.23,2.46,2.47,3.67,3.72l2.72,2.88c.92,1,1.83,2,2.74,3,.6.63,1.18,1.29,1.76,2,.41.45.83.92,1.24,1.4.79.91,1.58,1.83,2.36,2.76s1.75,2.08,2.6,3.15c.75.9,1.48,1.82,2.21,2.75,1,1.26,2,2.55,3,3.85,1.37,1.79,2.7,3.61,4,5.45,1.85,2.58,3.66,5.19,5.42,7.89h0s0,0,0,.05c.14.21.27.42.41.62l.35.54c.12.2.24.38.36.56.27.43.54.84.8,1.26,1.4,2.21,2.76,4.43,4.11,6.66.62,1,1.24,2.08,1.83,3.12,1.38,2.34,2.72,4.7,4,7.06,0,.07.08.14.12.23.68,1.22,1.34,2.43,2,3.66s1.26,2.38,1.88,3.56c1.17,2.23,2.3,4.47,3.41,6.72.54,1.07,1,2.15,1.57,3.22s1.12,2.37,1.68,3.55,1.1,2.37,1.64,3.56,1.06,2.38,1.59,3.59l1.51,3.5a.47.47,0,0,1,.07.17c.5,1.18,1,2.37,1.48,3.55a335.86,335.86,0,0,1,12.77,37.17c.35,1.27.69,2.54,1,3.82s.67,2.54,1,3.81q.93,3.72,1.8,7.46a1.55,1.55,0,0,1,0,.23c.29,1.28.58,2.57.86,3.86q1.74,8,3.07,16.14a335.19,335.19,0,0,1,1.12,101.3c0,.12,0,.23-.05.34-.15,1.12-.32,2.23-.48,3.34l-.19,1.19c-.15,1-.31,1.93-.47,2.89C763.7,555.8,763.47,557.12,763.24,558.42Z" transform="translate(-97.52 -164.55)"/><path class="cls-2" d="M760.53,572.06q-1.26,5.66-2.69,11.27c-.12.52-.26,1-.4,1.56q-1.53,5.85-3.25,11.59c-.38,1.26-.77,2.54-1.16,3.8-.29.93-.59,1.87-.89,2.79l-.37,1.15c-.35,1.07-.7,2.14-1.07,3.2,0,.1-.07.21-.1.32A335.8,335.8,0,0,1,706,694.93a.23.23,0,0,0-.07.1l-1.7,2.35c-1.21,1.66-2.42,3.3-3.66,4.93-.56.74-1.11,1.47-1.68,2.2-.36.47-.72.94-1.09,1.4s-.88,1.15-1.34,1.72-.79,1-1.2,1.51L694,710.73c-.83,1-1.67,2-2.51,3.06,0,0,0,0,0,0-.84,1-1.69,2-2.54,3s-1.71,2-2.57,3-1.73,2-2.61,3l-2.64,2.94A334,334,0,0,1,653,753.17c-1,.84-1.94,1.68-2.92,2.51a.58.58,0,0,1-.14.12L647,758.25l-3,2.48-3.07,2.45c-1,.8-2,1.61-3.09,2.41s-1.89,1.45-2.85,2.17c-.54.41-1.09.83-1.65,1.23l-1.19.88-.57.43-2.66,1.92c-.16.13-.33.24-.51.37l-.37.26c-.93.67-1.88,1.34-2.83,2l-3,2.08c-1.14.78-2.29,1.56-3.45,2.32l0,0c-1.07.72-2.15,1.43-3.25,2.13q3.88-2.58,7.64-5.26c1.84-1.32,3.65-2.65,5.44-4,1.3-1,2.59-2,3.86-3,.92-.74,1.85-1.46,2.75-2.22,1.06-.85,2.11-1.72,3.14-2.6s1.86-1.56,2.76-2.36l1.41-1.23c.67-.58,1.33-1.18,2-1.77,1-.9,2-1.81,3-2.74s2-1.84,2.94-2.77,1.8-1.75,2.69-2.64l1-1c.64-.64,1.27-1.3,1.9-1.94.26-.27.52-.53.77-.8.7-.73,1.39-1.46,2.08-2.2.09-.08.16-.17.25-.26.83-.87,1.64-1.77,2.45-2.65l.49-.55c.69-.76,1.37-1.52,2-2.3.22-.24.44-.48.64-.72.73-.84,1.46-1.69,2.18-2.54.87-1,1.72-2,2.55-3.06.67-.81,1.32-1.61,2-2.44s1.39-1.74,2.07-2.63a4.11,4.11,0,0,0,.27-.35c.45-.56.88-1.12,1.3-1.69l1.73-2.29q1-1.41,2-2.82l.74-1,1.79-2.55.13-.2c.62-.9,1.25-1.81,1.86-2.74.26-.38.51-.75.74-1.14l1.24-1.86c.34-.53.69-1.05,1-1.59.48-.73,1-1.48,1.41-2.24.11-.17.23-.35.33-.52.48-.76.94-1.52,1.39-2.27l1-1.75,1.12-1.92c.54-.93,1.07-1.87,1.59-2.81.37-.65.75-1.31,1.11-2l1.21-2.22c.14-.27.29-.53.42-.79.39-.74.79-1.48,1.16-2.22.31-.59.59-1.17.9-1.75s.58-1.14.86-1.71.51-1,.75-1.54c.38-.74.75-1.49,1.09-2.26.18-.35.35-.71.52-1.08.39-.82.78-1.64,1.15-2.48.18-.4.36-.78.53-1.19.3-.63.58-1.25.85-1.89s.62-1.41.92-2.11c.15-.35.3-.72.46-1.08.42-1,.84-2,1.25-3s.81-2,1.19-3c.21-.5.41-1,.61-1.54s.51-1.34.76-2c.43-1.13.84-2.27,1.25-3.42.28-.75.55-1.52.81-2.29s.63-1.83.94-2.77.66-2,1-3a.08.08,0,0,0,0-.07c.39-1.2.77-2.41,1.13-3.62s.74-2.45,1.08-3.68.61-2.16.9-3.25c.14-.5.26-1,.39-1.47.2-.75.39-1.51.57-2.25.3-1.16.59-2.33.87-3.5.17-.67.32-1.34.45-2s.37-1.57.53-2.37l0-.16c.25-1.15.5-2.29.73-3.44s.41-2.08.6-3.12.43-2.34.64-3.51c0-.15.06-.31.07-.46.13-.75.26-1.51.38-2.26s.23-1.4.33-2.09c0-.15,0-.3.07-.46.18-1.14.34-2.29.49-3.45q1.29-9.33,1.82-18.74c.06-.89.1-1.77.14-2.63q.36-7.23.26-14.46,0-3.21-.17-6.41A242.79,242.79,0,0,0,357.62,370L356,371l-1.8,1.1-1.79,1.11c-1.4.9-2.79,1.82-4.15,2.75-.5.33-1,.67-1.47,1s-1,.68-1.44,1-1,.68-1.43,1-1,.69-1.43,1.06l-1.4,1.07a148.29,148.29,0,0,0-21.94,20.77c-.79.9-1.55,1.81-2.3,2.73-.39.46-.77.93-1.14,1.4-.75.93-1.49,1.87-2.2,2.82s-1.35,1.77-2,2.66c-.93,1.27-1.83,2.55-2.72,3.85-.26.4-.54.81-.81,1.21s-.66,1-1,1.49-.65,1-1,1.51A148,148,0,0,0,291.3,450c-.2.54-.39,1.08-.57,1.64l0,.05c-.39,1.11-.74,2.23-1.09,3.36-.53,1.65-1,3.34-1.49,5-.16.58-.32,1.17-.47,1.77A242.89,242.89,0,0,1,687.87,343c1.56,1.46,3.11,2.92,4.64,4.43q5.18,5,10,10.4.9,1,1.77,1.95,6.29,7.05,12,14.55c.71.92,1.41,1.85,2.09,2.79a4.33,4.33,0,0,1,.27.37c.42.56.84,1.13,1.25,1.71s.9,1.24,1.33,1.87c.1.12.18.25.28.38.68,1,1.35,1.94,2,2.92s1.2,1.76,1.78,2.64,1.29,2,1.92,2.94l.09.15c.45.68.88,1.36,1.3,2s.74,1.15,1.09,1.74c.63,1,1.26,2.06,1.87,3.09.4.66.79,1.33,1.18,2,.26.43.51.88.77,1.32.56,1,1.1,1.95,1.65,2.93s1.24,2.24,1.84,3.37,1.2,2.23,1.77,3.36a.08.08,0,0,1,0,.06c.48.92,1,1.86,1.42,2.8s.88,1.75,1.3,2.63.71,1.46,1,2.18c.53,1.11,1,2.2,1.54,3.31.3.66.6,1.31.89,2,.23.5.45,1,.66,1.51.44,1,.86,2,1.27,3s.84,2,1.25,3c.15.36.3.73.44,1.09.28.7.57,1.42.84,2.13s.5,1.29.74,1.94c.16.4.31.81.46,1.21.32.86.64,1.72.94,2.58.15.38.28.75.4,1.12.29.79.56,1.58.83,2.37.19.54.38,1.08.55,1.62s.41,1.21.6,1.82.41,1.24.61,1.87c.25.79.5,1.59.74,2.39.09.28.18.56.26.86.25.81.49,1.62.72,2.42s.42,1.46.62,2.19c.29,1,.58,2.07.86,3.11.19.71.37,1.43.56,2.16s.34,1.31.5,2c.21.85.42,1.71.62,2.58,0,.2.1.4.14.61.21.86.41,1.72.58,2.57.15.62.29,1.23.41,1.85s.31,1.46.45,2.19c.1.44.19.88.27,1.33.22,1.08.43,2.17.63,3.25,0,.08,0,.16,0,.24q.29,1.53.54,3.06l.21,1.25c.19,1.14.37,2.29.54,3.44.14.95.27,1.89.4,2.84.1.7.2,1.4.28,2.11,0,.14,0,.29.06.44.15,1.11.27,2.22.39,3.33s.23,2.06.33,3.11c.14,1.31.25,2.64.36,4,.1,1.11.18,2.22.25,3.34q0,.47.06,1c.08,1,.13,2,.19,3.07,0,.24,0,.48,0,.73.06,1.21.12,2.41.15,3.61,0,.13,0,.24,0,.35,0,1,.06,2,.08,3,0,.38,0,.75,0,1.12l0,2.71c0,.45,0,.91,0,1.38,0,1.25,0,2.5,0,3.76s-.06,2.69-.11,4-.1,2.71-.17,4.06c-.05.88-.09,1.76-.16,2.64,0,.62-.07,1.25-.12,1.87-.08,1.21-.17,2.41-.28,3.62s-.23,2.71-.38,4.07c-.11,1.16-.25,2.33-.38,3.51-.19,1.61-.39,3.22-.61,4.84q-.46,3.33-1,6.68c-.51,3.14-1.09,6.27-1.74,9.41,0,.2-.08.4-.13.6s-.13.65-.21,1A1.84,1.84,0,0,1,760.53,572.06Z" transform="translate(-97.52 -164.55)"/><path class="cls-3" d="M577.8,540c.16-.58.32-1.17.47-1.77A242.9,242.9,0,0,1,178.07,657c-1.88-1.76-3.75-3.54-5.59-5.34l-.08-.08q-2.34-2.31-4.61-4.69-3-3.15-5.92-6.4c-.76-.85-1.52-1.7-2.27-2.57q-5.17-6-9.95-12.26c-.78-1-1.54-2-2.3-3.07s-1.48-2-2.2-3a1,1,0,0,0-.08-.11c-.53-.75-1.07-1.5-1.59-2.26l-.77-1.12c-.66-1-1.32-1.94-2-2.91s-1.41-2.14-2.1-3.22c-.56-.86-1.1-1.72-1.65-2.6-.89-1.42-1.78-2.87-2.64-4.32-.55-.91-1.09-1.83-1.63-2.75a.62.62,0,0,0-.11-.19c-.63-1.09-1.25-2.2-1.86-3.3s-1.24-2.24-1.84-3.37-1.21-2.24-1.77-3.36a.09.09,0,0,1,0-.06c-.57-1.08-1.11-2.16-1.64-3.25l-.14-.25c-.48-1-1-1.94-1.41-2.91-.12-.22-.22-.45-.33-.68-.52-1.08-1-2.16-1.52-3.24s-.91-2-1.35-3c-.13-.31-.27-.62-.41-.93-.45-1-.89-2.06-1.32-3.1s-.84-2-1.25-3c-.15-.35-.3-.72-.44-1.09-.32-.78-.62-1.57-.93-2.36-.15-.39-.31-.79-.46-1.2-.31-.79-.6-1.58-.9-2.38l-.48-1.32c-.3-.8-.58-1.59-.85-2.39-.14-.37-.27-.75-.39-1.13-.34-1-.67-1.92-1-2.87l-.15-.5c-.34-1-.67-2-1-3-.12-.34-.22-.68-.32-1-.24-.76-.47-1.53-.7-2.29-.14-.45-.28-.91-.41-1.37-.3-1-.6-2.08-.89-3.12s-.58-2.11-.86-3.18c-.09-.36-.19-.73-.29-1.1-.24-1-.49-1.91-.72-2.86-.39-1.61-.78-3.24-1.14-4.86-.21-.92-.41-1.83-.6-2.75-.07-.32-.14-.65-.2-1q-.27-1.24-.51-2.49c-.19-1-.38-1.91-.54-2.88,0-.1,0-.19-.06-.29q-.29-1.53-.54-3.06l-.21-1.25c-.19-1.14-.37-2.29-.54-3.44-.14-1-.27-1.89-.4-2.84-.1-.7-.19-1.4-.28-2.11l-.06-.44c-.14-1.12-.28-2.25-.4-3.38s-.22-2-.32-3c-.14-1.31-.26-2.64-.36-4-.1-1.08-.18-2.17-.25-3.25,0-.36,0-.72-.07-1.08-.06-.79-.11-1.59-.14-2.39,0-.52-.06-1-.08-1.56-.06-1.12-.1-2.25-.14-3.39,0-.14,0-.27,0-.4,0-1-.06-2-.08-3,0-.38,0-.75,0-1.12l0-2.71c0-1.74,0-3.48,0-5.22,0-1.32.07-2.64.11-3.95s.1-2.71.17-4.06c0-.88.09-1.76.16-2.64,0-.62.07-1.25.11-1.87.09-1.21.18-2.41.29-3.62s.23-2.72.38-4.07c.11-1.16.24-2.34.38-3.51.18-1.61.39-3.22.61-4.84.3-2.23.65-4.46,1-6.68q.77-4.71,1.74-9.41c.06-.31.12-.61.19-.92s.14-.61.2-.91q1.25-5.65,2.69-11.27c.12-.52.26-1.05.4-1.56q1.53-5.85,3.25-11.59c.38-1.26.77-2.53,1.16-3.8.28-.87.55-1.75.84-2.62.14-.47.29-.93.44-1.4.34-1,.69-2.06,1-3.1a2.69,2.69,0,0,0,.12-.34,335.61,335.61,0,0,1,35.76-74.16c.71-1.11,1.44-2.21,2.16-3.31h0c.74-1.1,1.47-2.2,2.22-3.3s1.48-2.18,2.24-3.26c.25-.36.5-.73.76-1.09.49-.69,1-1.39,1.46-2.07,0,0,0,0,0,0A.31.31,0,0,0,160,305q2.63-3.66,5.35-7.27c.58-.78,1.16-1.54,1.75-2.31l1-1.29c.33-.45.68-.89,1-1.32l.32-.41a1.25,1.25,0,0,1,.09-.12l1.1-1.38a335.34,335.34,0,0,1,22.26-25.18c.92-.93,1.84-1.87,2.77-2.8q5.55-5.55,11.37-10.84,4.33-3.93,8.79-7.72s0,0,.06,0,0-.05.08-.07q4.45-3.76,9-7.38l3.09-2.41,2.85-2.17.27-.2c.77-.59,1.55-1.16,2.33-1.74l.24-.17.57-.43,2.66-1.92,3.29-2.34c1.13-.8,2.28-1.58,3.43-2.37l.21-.14c2.23-1.53,4.49-3,6.77-4.49-2.69,1.77-5.31,3.57-7.89,5.42-1.83,1.32-3.66,2.65-5.44,4q-2,1.47-3.86,3c-.93.73-1.85,1.46-2.75,2.22-1.06.84-2.11,1.71-3.14,2.6s-1.86,1.56-2.76,2.36l-1.41,1.23c-.67.58-1.33,1.17-2,1.77-1,.9-2,1.81-3,2.74s-1.94,1.8-2.88,2.72c-1.26,1.21-2.49,2.44-3.72,3.66-.64.64-1.27,1.3-1.9,1.94-.26.27-.52.53-.77.8-.7.73-1.4,1.47-2.08,2.2l-.29.29c-.77.84-1.54,1.66-2.3,2.5l-1,1.17c-.55.59-1.07,1.18-1.59,1.78-.24.26-.48.54-.71.82-.72.81-1.43,1.63-2.13,2.47-.86,1-1.71,2-2.56,3.06-.65.79-1.29,1.59-1.92,2.38s-1.42,1.78-2.1,2.68c-.1.12-.18.22-.27.35-.45.56-.88,1.12-1.3,1.69-.59.76-1.16,1.52-1.73,2.29q-1,1.41-2,2.82l-.74,1c-.61.85-1.21,1.7-1.79,2.55,0,.08-.11.16-.16.25-.56.8-1.11,1.61-1.64,2.41s-1,1.41-1.41,2.13c-.19.28-.37.56-.56.83L179.38,291c-.9,1.41-1.77,2.83-2.63,4.26-.51.83-1,1.67-1.51,2.53-.2.32-.39.66-.57,1-.57.95-1.11,1.89-1.65,2.86s-1.05,1.88-1.57,2.82c-.24.43-.46.85-.69,1.27-.38.69-.76,1.39-1.11,2.11-.18.33-.35.64-.51,1-.49.93-1,1.88-1.45,2.83l-.24.47c-.46.89-.91,1.79-1.33,2.72q-.28.54-.54,1.08c-.36.75-.73,1.51-1.09,2.29l-.58,1.28c-.36.75-.7,1.54-1,2.31-.19.39-.35.79-.52,1.18-.36.77-.69,1.53-1,2.33-.16.35-.31.71-.46,1.08-.43,1-.85,2-1.25,3s-.85,2.07-1.26,3.14c-.12.31-.24.63-.37.94-.39,1-.78,2.05-1.16,3.08s-.82,2.23-1.21,3.36c-.09.25-.19.48-.26.71-.37,1-.71,2-1.06,3.06a1.87,1.87,0,0,1-.08.28c-.39,1.14-.78,2.29-1.14,3.46,0,0,0,0,0,.07-.4,1.19-.77,2.4-1.13,3.62s-.74,2.45-1.08,3.68l-1,3.66a.65.65,0,0,1-.05.21c-.27,1-.54,2.06-.79,3.1-.42,1.63-.82,3.28-1.18,4.92-.26,1-.48,2-.69,3-.27,1.25-.54,2.5-.78,3.76s-.47,2.29-.67,3.43c-.08.46-.16.89-.25,1.34-.17.91-.32,1.83-.47,2.73,0,0,0,.09,0,.13-.22,1.23-.42,2.47-.6,3.7s-.38,2.54-.54,3.8c-.72,5.2-1.26,10.45-1.63,15.71-.08,1.14-.16,2.27-.21,3.42-.18,2.89-.28,5.8-.34,8.71-.06,2.19-.07,4.37-.06,6.57V423q0,3.85.18,7.73A242.77,242.77,0,0,0,508.31,630l1.64-1,1.8-1.1,1.79-1.11c1.4-.9,2.79-1.82,4.15-2.75.5-.33,1-.67,1.47-1s1-.68,1.44-1,1-.68,1.43-1,1-.69,1.42-1.06.95-.71,1.41-1.07A148.29,148.29,0,0,0,546.8,598.1c.79-.9,1.55-1.81,2.3-2.73.39-.46.77-.93,1.14-1.4.75-.93,1.49-1.87,2.2-2.82s1.35-1.77,2-2.66q1.4-1.9,2.71-3.85l.82-1.21c.33-.49.66-1,1-1.49s.65-1,1-1.51a148,148,0,0,0,14.73-30.38c.2-.54.39-1.08.57-1.64l0,0c.38-1.11.74-2.23,1.09-3.36C576.84,543.35,577.33,541.66,577.8,540Z" transform="translate(-97.52 -164.55)"/><path class="cls-4" d="M651.43,551.94a243.4,243.4,0,0,1-61.5,203q-2.17,2.36-4.42,4.64-5,5.19-10.41,10c-.63.6-1.29,1.18-2,1.77q-7,6.27-14.54,12l-2.79,2.09-.37.27c-.57.42-1.14.84-1.72,1.25s-1.24.89-1.87,1.33c-.11.1-.25.18-.37.27l-2.93,2c-.87.6-1.75,1.2-2.63,1.78s-2,1.29-2.95,1.92l-.14.09c-.68.44-1.36.88-2.05,1.3s-1.15.73-1.74,1.09c-1,.63-2,1.26-3.08,1.86-.66.4-1.33.8-2,1.18l-1.31.77-2.93,1.66c-1.12.63-2.24,1.23-3.37,1.84s-2.24,1.19-3.36,1.77l-.06,0c-.93.48-1.86.95-2.81,1.42s-1.75.87-2.63,1.29c-.72.37-1.45.72-2.18,1q-1.65.79-3.3,1.53c-.66.31-1.32.61-2,.89l-1.52.67c-1,.43-2,.86-3,1.27s-2,.84-3,1.24l-1.09.44c-.71.29-1.42.57-2.14.84s-1.29.51-1.94.74c-.4.17-.8.32-1.21.47-.86.32-1.71.64-2.58.94l-1.12.4c-.79.28-1.57.56-2.37.82-.53.19-1.07.38-1.62.55s-1.2.41-1.82.61l-1.87.6c-.79.26-1.59.51-2.38.75l-.87.26c-.81.25-1.61.49-2.42.72l-2.18.62-3.11.85-2.16.57-2,.5c-.85.2-1.72.42-2.58.61l-.61.15c-.87.2-1.72.4-2.58.58-.61.15-1.23.28-1.84.4s-1.46.31-2.2.46c-.43.1-.88.19-1.33.27-1.07.21-2.16.43-3.25.62l-.24,0-3.05.54-1.25.2c-1.15.19-2.29.37-3.44.54-.95.14-1.9.28-2.84.4-.7.1-1.41.21-2.11.28a3.11,3.11,0,0,1-.44.06q-1.67.23-3.33.39c-1,.13-2.07.23-3.11.33-1.32.14-2.64.26-4,.37-1.11.09-2.22.18-3.34.25l-1,.06c-1,.07-2.05.13-3.08.18l-.72,0c-1.21.06-2.42.11-3.62.14a1.38,1.38,0,0,1-.35,0c-1,0-2,.07-3,.08-.37,0-.74,0-1.12,0l-2.7,0h-1.38c-1.26,0-2.51,0-3.76,0s-2.69,0-4-.11-2.71-.1-4.06-.17l-2.64-.15-1.87-.12c-1.2-.08-2.4-.17-3.61-.28s-2.71-.24-4.07-.39c-1.17-.11-2.34-.24-3.51-.38-1.61-.18-3.23-.38-4.84-.6-2.23-.32-4.45-.65-6.69-1-3.13-.51-6.26-1.09-9.41-1.73l-.07,0-.53-.11-1-.22a1.19,1.19,0,0,1-.26-.05q-5.65-1.24-11.26-2.68c-.53-.13-1.05-.26-1.56-.41q-5.85-1.53-11.59-3.24c-1.27-.39-2.55-.77-3.81-1.17-.93-.29-1.86-.58-2.79-.89l-1.15-.36c-1.06-.36-2.13-.7-3.19-1.07l-.33-.11a335.57,335.57,0,0,1-74.16-35.75q-10.17-6.57-19.93-13.9c-1.95-1.47-3.88-3-5.8-4.48a333.09,333.09,0,0,1-26.68-23.45,339.71,339.71,0,0,1-23.93-26l-2.48-3q-3.69-4.59-7.23-9.28c-.78-1-1.56-2.09-2.33-3.14-.6-.79-1.17-1.59-1.75-2.4l-.14-.19c-.8-1.12-1.59-2.23-2.38-3.36q-3.51-5-6.85-10.16c1.73,2.59,3.47,5.14,5.27,7.63,1.32,1.85,2.65,3.65,4,5.45,1,1.3,2,2.59,3,3.85.73.93,1.46,1.85,2.21,2.75.86,1.07,1.73,2.12,2.6,3.15s1.57,1.85,2.36,2.76c.41.48.82.94,1.24,1.4.58.68,1.17,1.33,1.76,2,.9,1,1.81,2,2.74,3s1.85,2,2.78,2.93,1.75,1.8,2.64,2.69l1,1,1.93,1.89.81.77c.72.71,1.45,1.4,2.19,2.09l.26.24c.88.84,1.77,1.65,2.66,2.45.18.17.36.34.54.49.76.7,1.53,1.37,2.3,2,.25.21.48.43.72.63.85.74,1.69,1.46,2.55,2.18s2,1.73,3.06,2.56c.81.66,1.61,1.32,2.43,2s1.75,1.4,2.63,2.08a3.07,3.07,0,0,0,.36.27c.55.45,1.12.87,1.69,1.29.75.59,1.52,1.16,2.29,1.73.93.7,1.87,1.37,2.81,2,.34.24.7.49,1,.74.84.6,1.69,1.19,2.54,1.78l.21.13c.9.63,1.81,1.26,2.74,1.86.37.26.75.51,1.13.75.62.41,1.24.83,1.87,1.23s1.05.7,1.58,1c.74.47,1.49,1,2.24,1.41l.53.33,2.27,1.39,1.74,1c.64.38,1.28.76,1.93,1.13.93.54,1.87,1.07,2.8,1.59l2,1.11,2.22,1.2.8.43c.73.39,1.47.78,2.22,1.15.58.32,1.16.6,1.75.9s1.13.58,1.71.86,1,.51,1.53.76c.74.38,1.49.74,2.26,1.09l1.08.51,2.48,1.16,1.19.53c.63.29,1.25.57,1.9.85s1.4.61,2.1.91l1.08.46c1,.43,2,.85,3,1.25s2,.82,3,1.2c.51.2,1,.41,1.54.6l2,.77,3.43,1.25c.74.28,1.51.54,2.28.81s1.83.63,2.78.93,2,.66,3,1a.1.1,0,0,0,.07,0c1.2.39,2.42.77,3.63,1.13s2.44.73,3.68,1.08l3.25.89,1.47.39,2.25.58,3.49.86c.67.17,1.34.32,2,.46l2.37.53.17,0c1.14.25,2.29.49,3.43.72s2.08.42,3.13.6,2.33.43,3.51.64l.45.08,2.27.37c.69.12,1.39.23,2.09.33l.45.07c1.14.18,2.3.34,3.45.49q9.33,1.3,18.75,1.83c.88,0,1.76.1,2.63.13,4.81.24,9.64.33,14.45.26,2.14,0,4.28-.07,6.41-.16A242.79,242.79,0,0,0,563,424.66L562,423l-1.09-1.8-1.12-1.79q-1.35-2.12-2.74-4.16c-.34-.5-.67-1-1-1.46s-.68-1-1-1.45-.69-1-1-1.43-.7-.95-1.06-1.42-.71-.95-1.07-1.41q-1.64-2.12-3.33-4.16c-.37-.47-.76-.92-1.15-1.36a149,149,0,0,0-20.42-19.85c-.46-.39-.93-.76-1.4-1.12-.95-.74-1.9-1.47-2.85-2.18l-1.45-1.06-1.47-1.05-1-.69-.9-.62c-.5-.34-1-.68-1.49-1-1-.67-2-1.32-3-2l-1.52-.95-1.53-.92c-1-.61-2-1.22-3.09-1.81l-1.56-.87c-1-.58-2.08-1.14-3.14-1.68-.52-.27-1.06-.54-1.58-.82-1-.54-2.08-1-3.13-1.55l-.07,0c-3.72-1.78-7.52-3.41-11.43-4.88l-1.66-.62-1.68-.61-1.14-.39-1.22-.42c-1.54-.5-3.08-1-4.62-1.45l-1.45-.43-1.14-.32-1.81-.5a242.76,242.76,0,0,1,179.8,197.13Z" transform="translate(-97.52 -164.55)"/><path class="cls-5" d="M714.52,317.77c-1.76-2.7-3.57-5.31-5.42-7.89-1.31-1.84-2.64-3.66-4-5.45-1-1.3-2-2.59-3-3.85-.72-.94-1.46-1.85-2.21-2.75-.85-1.07-1.72-2.12-2.6-3.15s-1.57-1.85-2.36-2.76c-.41-.48-.83-.95-1.24-1.4-.58-.68-1.16-1.34-1.76-2-.9-1-1.81-2-2.74-3s-1.8-1.94-2.72-2.88c-1.21-1.25-2.44-2.49-3.67-3.72l-1.93-1.89-.81-.77c-.72-.71-1.46-1.41-2.19-2.09-.11-.09-.2-.19-.3-.28-.83-.77-1.65-1.55-2.49-2.3l-1.17-1.05c-.59-.54-1.19-1.06-1.78-1.58l-.82-.71c-.82-.72-1.64-1.43-2.48-2.13-1-.87-2-1.72-3.06-2.56-.79-.65-1.58-1.29-2.38-1.92s-1.78-1.42-2.67-2.11c-.12-.1-.23-.18-.36-.27-.55-.45-1.12-.87-1.69-1.29-.76-.6-1.52-1.17-2.29-1.73-.93-.7-1.87-1.37-2.81-2-.34-.24-.7-.49-1-.74-.85-.61-1.7-1.2-2.54-1.78l-.25-.16c-.81-.57-1.61-1.12-2.42-1.65s-1.41-.95-2.12-1.41l-.83-.55c-.8-.51-1.58-1-2.37-1.51-1.41-.9-2.83-1.77-4.26-2.64-.82-.5-1.67-1-2.53-1.5-.32-.2-.65-.4-1-.58-.94-.56-1.89-1.1-2.86-1.64s-1.87-1.06-2.82-1.58l-1.27-.68c-.69-.38-1.39-.76-2.1-1.12-.33-.18-.64-.35-1-.5-.94-.49-1.89-1-2.83-1.46l-.47-.23c-.9-.46-1.8-.91-2.73-1.34-.35-.19-.71-.36-1.07-.53-.76-.37-1.51-.73-2.29-1.09l-1.28-.58c-.76-.37-1.54-.72-2.31-1.06l-1.18-.51c-.77-.36-1.54-.7-2.33-1-.35-.17-.72-.31-1.08-.46-1-.43-2-.86-3-1.25s-2.07-.86-3.13-1.26l-.94-.37-3.09-1.17c-1.11-.41-2.23-.81-3.36-1.21l-.71-.26c-1-.36-2-.71-3-1l-.28-.09c-1.14-.38-2.3-.77-3.46-1.13l-.07,0c-1.19-.39-2.41-.76-3.63-1.13s-2.45-.73-3.68-1.08l-3.65-1-.22-.05c-1-.28-2.06-.54-3.1-.8-1.62-.42-3.28-.81-4.92-1.18-1-.25-2-.48-3-.68-1.25-.28-2.5-.55-3.76-.78s-2.29-.48-3.44-.68c-.45-.07-.89-.16-1.34-.24-.9-.18-1.82-.32-2.72-.48l-.13,0c-1.23-.22-2.47-.41-3.71-.59s-2.53-.39-3.79-.54c-5.21-.73-10.45-1.26-15.71-1.63-1.14-.09-2.28-.16-3.42-.22-2.89-.17-5.81-.28-8.71-.33-2.2-.06-4.38-.08-6.58-.06h-.11c-2.58,0-5.16.08-7.73.18A242.76,242.76,0,0,0,303,575.34l1,1.64,1.09,1.8,1.12,1.79q1.35,2.11,2.74,4.16c.33.5.67,1,1,1.46s.68,1,1,1.45.69,1,1,1.43.7.95,1.06,1.42.71,1,1.07,1.41q1.64,2.11,3.33,4.16c.37.47.76.92,1.15,1.36A149,149,0,0,0,339,617.27c.46.39.93.76,1.4,1.12.94.74,1.9,1.47,2.85,2.18l1.45,1.06c.49.35,1,.71,1.47,1l1,.69.9.62c.5.34,1,.68,1.49,1,1,.67,2,1.32,3,2l1.52.95,1.53.92c1,.61,2,1.22,3.08,1.81.52.28,1,.57,1.56.87q1.56.87,3.15,1.68L365,634c1,.54,2.08,1,3.13,1.55l.07,0c3.72,1.78,7.52,3.41,11.43,4.88l1.66.62,1.68.61,1.14.39,1.22.42c1.54.5,3.08,1,4.62,1.45l1.45.43,1.14.32,1.81.5A242.89,242.89,0,0,1,276,245.11c1.75-1.89,3.53-3.76,5.33-5.59l.09-.08c1.54-1.57,3.1-3.1,4.69-4.61,2.09-2,4.23-4,6.39-5.92.85-.77,1.71-1.52,2.58-2.27q6-5.17,12.25-10c1-.77,2-1.54,3.08-2.3s2-1.47,3-2.2l.11-.07,2.26-1.59,1.12-.77c1-.67,1.93-1.32,2.91-2s2.13-1.42,3.21-2.11c.86-.55,1.72-1.1,2.6-1.64,1.43-.9,2.87-1.79,4.32-2.64.91-.56,1.83-1.1,2.75-1.63a.93.93,0,0,0,.19-.11c1.1-.63,2.2-1.26,3.3-1.87s2.24-1.23,3.37-1.84,2.24-1.2,3.36-1.77l.06,0c1.08-.56,2.17-1.11,3.25-1.64l.26-.13c1-.48,1.93-1,2.9-1.42l.69-.32c1.08-.52,2.15-1,3.24-1.52s2-.92,3-1.35l.93-.41c1-.45,2.06-.9,3.1-1.33s2-.84,3-1.24c.36-.16.72-.31,1.09-.44.79-.32,1.57-.63,2.36-.93l1.2-.47,2.38-.89,1.32-.49c.8-.29,1.6-.58,2.39-.85l1.13-.39c1-.34,1.92-.66,2.88-1l.5-.16c1-.34,2-.66,3-1,.33-.12.68-.22,1-.32.76-.25,1.52-.48,2.28-.71l1.38-.41c1-.3,2.07-.6,3.12-.88s2.11-.59,3.17-.86l1.11-.29q1.42-.37,2.85-.72,2.43-.6,4.87-1.15c.91-.2,1.82-.41,2.74-.6l1-.2c.84-.18,1.67-.34,2.5-.5s1.91-.38,2.87-.54l.29-.07,3.06-.54,1.25-.2c1.15-.19,2.29-.37,3.44-.54.95-.14,1.9-.28,2.84-.4.7-.1,1.4-.2,2.11-.28a3.32,3.32,0,0,1,.44-.06c1.12-.15,2.25-.28,3.38-.4s2-.23,3.05-.33c1.32-.14,2.64-.25,4-.36,1.08-.09,2.17-.17,3.26-.24.35,0,.72-.06,1.07-.07.8-.06,1.59-.11,2.39-.15l1.56-.08c1.13-.06,2.26-.1,3.4-.14h.4c1,0,2-.07,3-.08.37,0,.74,0,1.11,0l2.71,0c1.74,0,3.49,0,5.23,0,1.32,0,2.63.06,3.95.11s2.71.1,4.06.17c.87,0,1.76.09,2.63.15l1.88.12c1.2.08,2.4.17,3.61.28,1.36.11,2.72.24,4.07.39,1.17.11,2.34.23,3.51.38,1.61.17,3.23.38,4.84.6q3.34.47,6.69,1,4.69.76,9.41,1.73l.93.2.9.2q5.66,1.25,11.26,2.68c.53.13,1.05.26,1.56.41q5.85,1.53,11.59,3.24c1.28.39,2.54.77,3.81,1.17.93.29,1.86.58,2.79.89l1.14.36c1.07.36,2.14.7,3.2,1.07l.33.11a335.57,335.57,0,0,1,74.16,35.75q10.18,6.57,19.92,13.91,6.09,4.59,12,9.44A335.47,335.47,0,0,1,691.21,286q2.49,3,4.92,6.09c.81,1,1.61,2.06,2.41,3.1s1.41,1.83,2.11,2.75,1.41,1.87,2.1,2.82,1.5,2.05,2.24,3.09l.15.19c.8,1.12,1.59,2.23,2.38,3.36Q711.11,312.46,714.52,317.77Z" transform="translate(-97.52 -164.55)"/><path class="cls-6" d="M505.63,631.5c.89-.48,1.79-1,2.68-1.51A242.88,242.88,0,0,1,141.73,430.77q-.15-3.87-.18-7.73v-.12c0-2.2,0-4.38.06-6.57.06-2.91.16-5.82.34-8.71.05-1.15.13-2.28.21-3.42.37-5.26.91-10.51,1.63-15.71.16-1.26.34-2.53.54-3.8s.38-2.47.6-3.7c0,0,0-.09,0-.13.15-.9.3-1.82.47-2.73.09-.45.17-.88.25-1.34.2-1.14.43-2.29.67-3.43s.51-2.51.78-3.76c.22-1,.45-2,.69-3,.36-1.64.76-3.29,1.18-4.92.25-1,.52-2.07.79-3.1a.65.65,0,0,0,.05-.21l1-3.66c.34-1.23.71-2.46,1.08-3.68s.74-2.42,1.13-3.62c0,0,0,0,0-.07.36-1.17.75-2.32,1.14-3.46a1.87,1.87,0,0,0,.08-.28c.36-1,.7-2,1.06-3.06.07-.23.17-.46.26-.71.39-1.13.79-2.25,1.21-3.36s.77-2.06,1.16-3.08c.13-.31.25-.63.37-.94.41-1.07.83-2.11,1.26-3.14s.83-2,1.25-3c.15-.37.3-.73.46-1.08.34-.79.67-1.56,1-2.33.17-.39.33-.79.52-1.18.35-.77.69-1.54,1-2.31l.58-1.28c.37-.77.74-1.53,1.09-2.29q.25-.54.54-1.08c.42-.93.87-1.83,1.33-2.72l.24-.47c.47-.95,1-1.9,1.45-2.83.16-.32.33-.63.51-1,.36-.71.74-1.41,1.11-2.11.23-.42.45-.84.69-1.27.52-.94,1-1.89,1.57-2.82s1.08-1.91,1.65-2.86c.18-.32.37-.66.57-1,.5-.86,1-1.7,1.51-2.53.86-1.43,1.73-2.85,2.63-4.26l1.51-2.36c.19-.27.37-.55.56-.83q.69-1.08,1.41-2.13c.53-.8,1.08-1.61,1.64-2.41.05-.09.11-.17.16-.25l1.79-2.55.74-1q1-1.41,2-2.82l1.73-2.29c.42-.57.85-1.12,1.3-1.69.09-.13.17-.23.27-.35.68-.9,1.39-1.79,2.1-2.68s1.27-1.59,1.92-2.38c.85-1,1.7-2.05,2.56-3.06.7-.83,1.41-1.66,2.13-2.47.23-.28.47-.56.71-.82.52-.6,1-1.19,1.59-1.78l1-1.17c.76-.84,1.53-1.66,2.3-2.5l.29-.29c.68-.73,1.38-1.47,2.08-2.2.25-.27.51-.53.77-.8.63-.64,1.26-1.3,1.9-1.94,1.23-1.22,2.46-2.45,3.72-3.66,1-.92,1.91-1.82,2.88-2.72s2-1.84,3-2.74c.64-.6,1.3-1.19,2-1.77l1.41-1.23c.9-.8,1.82-1.59,2.76-2.36s2.08-1.76,3.14-2.6c.9-.76,1.82-1.49,2.75-2.22q1.91-1.52,3.86-3c1.78-1.36,3.61-2.69,5.44-4,2.58-1.85,5.2-3.65,7.89-5.42h0l.05,0c.27-.17.53-.33.79-.51l.94-.61,1.27-.81c2.2-1.39,4.42-2.75,6.66-4.1,1-.63,2.07-1.23,3.1-1.83,3.64-2.13,7.28-4.17,10.95-6.14,1.22-.66,2.43-1.3,3.65-1.93l.21-.11,3.4-1.75,3.14-1.57,3.12-1.51,3.54-1.68c2.37-1.1,4.76-2.18,7.14-3.22a335.66,335.66,0,0,1,59.72-19.72q7.43-1.68,14.93-3,12-2.18,24.05-3.46a336.19,336.19,0,0,1,82.32,1.45l.34,0,3.33.49,1.19.19,2.89.46,3.92.68q5.91,1.05,11.82,2.31-4.71-1-9.41-1.73-3.35-.57-6.69-1c-1.61-.22-3.23-.43-4.84-.6-1.17-.15-2.34-.27-3.51-.38-1.35-.15-2.71-.28-4.07-.39-1.21-.11-2.41-.2-3.61-.28-.63,0-1.25-.09-1.88-.12-.87-.06-1.76-.12-2.63-.15-1.35-.07-2.71-.14-4.06-.17s-2.64-.1-3.95-.11c-1.74,0-3.49-.05-5.23,0l-2.71,0c-.37,0-.74,0-1.11,0-1,0-2,0-3,.08h-.4c-1.14,0-2.27.08-3.4.14l-1.56.08c-.8,0-1.59.09-2.39.15-.35,0-.72,0-1.07.07-1.09.07-2.18.15-3.26.24-1.33.11-2.65.22-4,.36-1,.1-2,.21-3.05.33s-2.26.25-3.38.4a3.32,3.32,0,0,0-.44.06c-.7.07-1.41.18-2.11.28-.94.12-1.89.26-2.84.4-1.15.17-2.29.35-3.44.54l-1.25.2-3.06.54-.29.07c-1,.16-1.92.34-2.87.54s-1.66.32-2.5.5l-1,.2c-.92.19-1.83.4-2.74.6q-2.45.56-4.87,1.15-1.43.34-2.85.72l-1.11.29c-1.06.27-2.12.55-3.17.86s-2.09.58-3.12.88l-1.38.41c-.76.22-1.52.45-2.28.71-.35.1-.7.2-1,.32-1,.31-2,.63-3,1l-.5.16c-1,.32-1.92.63-2.88,1l-1.13.39c-.79.27-1.59.56-2.39.85l-1.32.49c-.79.28-1.59.59-2.38.89l-1.2.47c-.79.29-1.57.6-2.36.93-.37.13-.73.28-1.09.44-1,.39-2,.8-3,1.24s-2.06.87-3.1,1.33l-.93.41c-1,.43-2,.89-3,1.35s-2.16,1-3.24,1.52l-.69.32c-1,.46-1.93.94-2.9,1.42l-.26.13c-1.08.53-2.17,1.08-3.25,1.64l-.06,0q-1.68.85-3.36,1.77c-1.13.6-2.25,1.2-3.37,1.84s-2.2,1.24-3.3,1.87a.93.93,0,0,1-.19.11c-.92.53-1.84,1.07-2.75,1.63-1.45.85-2.89,1.74-4.32,2.64-.89.54-1.75,1.08-2.6,1.64-1.09.69-2.16,1.39-3.21,2.11s-1.95,1.29-2.91,2l-1.12.77c-.76.52-1.52,1.06-2.26,1.59l-.11.07c-1,.73-2,1.46-3,2.2s-2.07,1.53-3.08,2.3q-6.29,4.77-12.25,10c-.87.75-1.73,1.5-2.58,2.27-2.16,1.93-4.3,3.91-6.39,5.92-1.59,1.51-3.15,3-4.69,4.61l-.09.08c-1.8,1.83-3.58,3.7-5.33,5.59A242.78,242.78,0,0,0,394.3,645.19l1.86.48c1.37.34,2.73.67,4.11,1s2.48.54,3.72.79l1.16.22,1.49.27c1.58.29,3.18.54,4.78.78l1.28.18,1.19.16,1.77.22,1.76.19q6.22.66,12.41.79a.09.09,0,0,1,.07,0c1.17,0,2.32,0,3.49,0l1.78,0c1.19,0,2.38,0,3.57-.08.59,0,1.19-.06,1.78-.08,1.2-.06,2.39-.13,3.57-.22l1.78-.14c.6-.05,1.2-.1,1.79-.17,1.19-.11,2.37-.24,3.56-.39.59-.07,1.18-.14,1.78-.23l1.08-.14,1.18-.18,1.79-.27,1.77-.3c1.17-.21,2.35-.43,3.53-.67.58-.1,1.16-.22,1.75-.36,4.63-1,9.26-2.18,13.83-3.63a140,140,0,0,0,13.34-4.91c.55-.22,1.1-.45,1.64-.7q2.44-1,4.84-2.22c.54-.24,1.07-.5,1.6-.77s1.06-.52,1.58-.79,1.05-.54,1.57-.81l1.57-.83Z" transform="translate(-97.52 -164.55)"/><path class="cls-7" d="M596.8,539A243,243,0,0,1,363.71,791.23c-2.13.09-4.27.15-6.41.16-4.81.07-9.64,0-14.45-.26-.87,0-1.75-.08-2.63-.13q-9.42-.54-18.75-1.83c-1.15-.15-2.31-.31-3.45-.49l-.45-.07c-.7-.1-1.4-.21-2.09-.33l-2.27-.37-.45-.08c-1.18-.21-2.34-.41-3.51-.64s-2.09-.39-3.13-.6-2.29-.47-3.43-.72l-.17,0-2.37-.53-2-.46-3.49-.86-2.25-.58-1.47-.39-3.25-.89c-1.24-.35-2.45-.72-3.68-1.08s-2.43-.74-3.63-1.13a.1.1,0,0,1-.07,0c-1-.32-2-.64-3-1s-1.87-.61-2.78-.93l-2.28-.81-3.43-1.25-2-.77c-.52-.19-1-.4-1.54-.6-1-.38-2-.79-3-1.2s-2-.82-3-1.25l-1.08-.46c-.7-.3-1.41-.6-2.1-.91s-1.27-.56-1.9-.85l-1.19-.53-2.48-1.16-1.08-.51-2.26-1.09c-.51-.25-1-.49-1.53-.76s-1.15-.56-1.71-.86-1.17-.58-1.75-.9c-.75-.37-1.49-.76-2.22-1.15l-.8-.43-2.22-1.2-2-1.11c-.93-.52-1.87-1-2.8-1.59-.65-.37-1.29-.75-1.93-1.13l-1.74-1L226.23,755l-.53-.33c-.75-.46-1.5-.94-2.24-1.41-.53-.32-1.06-.67-1.58-1s-1.25-.82-1.87-1.23c-.38-.24-.76-.49-1.13-.75-.92-.61-1.84-1.23-2.74-1.86l-.21-.13c-.85-.59-1.7-1.18-2.54-1.78-.33-.25-.69-.5-1-.74-.94-.68-1.88-1.35-2.81-2-.77-.57-1.54-1.14-2.29-1.73-.57-.42-1.14-.84-1.69-1.29a3.07,3.07,0,0,1-.36-.27c-.88-.68-1.76-1.38-2.63-2.08s-1.62-1.3-2.43-2c-1-.83-2.05-1.69-3.06-2.56s-1.7-1.44-2.55-2.18c-.24-.2-.47-.42-.72-.63-.77-.68-1.54-1.35-2.3-2-.18-.15-.36-.32-.54-.49-.9-.81-1.78-1.62-2.66-2.45l-.26-.24c-.74-.69-1.47-1.38-2.19-2.09l-.81-.77-1.93-1.89-1-1c-.89-.89-1.77-1.78-2.64-2.69s-1.86-1.94-2.78-2.93-1.84-2-2.74-3c-.59-.64-1.18-1.29-1.76-2-.42-.46-.83-.92-1.24-1.4-.79-.91-1.58-1.83-2.36-2.76s-1.74-2.08-2.6-3.15c-.75-.9-1.48-1.82-2.21-2.75-1-1.26-2-2.55-3-3.85-1.36-1.8-2.69-3.6-4-5.45-1.8-2.49-3.54-5-5.27-7.63l-.16-.26h0l0-.05a5,5,0,0,1-.29-.45c-.14-.18-.25-.37-.37-.56-1.13-1.75-2.24-3.52-3.33-5.29-.69-1.11-1.37-2.21-2-3.33h0c-.45-.75-.9-1.5-1.34-2.25-.18-.29-.34-.57-.5-.86,0,0-.06-.08-.08-.13l-.08-.13c-.66-1.13-1.3-2.25-1.94-3.37,0,0,0,0,0,0-.7-1.2-1.37-2.41-2-3.63-.59-1.06-1.18-2.14-1.76-3.21s-1.09-2-1.62-3.06c-.07-.13-.15-.26-.21-.4s-.21-.37-.29-.55l-.91-1.76q-.31-.58-.6-1.17c-.11-.21-.22-.42-.32-.63L133,650c-.27-.52-.52-1-.78-1.54-.05-.1-.1-.2-.14-.3-.53-1.07-1-2.15-1.57-3.22s-1.12-2.37-1.68-3.55-1.09-2.38-1.63-3.57c-.85-1.88-1.68-3.75-2.49-5.64l-.63-1.46a.13.13,0,0,1,0-.07s0,0,0-.07c-.21-.49-.41-1-.61-1.46q-2-4.67-3.77-9.4c-.47-1.22-.93-2.45-1.39-3.68q-1.78-4.82-3.41-9.69-1.5-4.46-2.87-9-1.14-3.76-2.2-7.55h0q-1-3.79-2-7.62h0q-1-3.82-1.84-7.67v0c-.29-1.29-.58-2.57-.86-3.86l-.78-3.71c0-.05,0-.11,0-.15h0c-.14-.71-.28-1.42-.41-2.12s-.23-1.17-.35-1.77c-.17-.9-.34-1.8-.5-2.72l-.21-1.05q-.7-4-1.33-8c-.19-1.27-.38-2.54-.55-3.81s-.36-2.61-.54-3.92-.33-2.63-.49-3.94h0c-.15-1.31-.3-2.62-.44-3.93a335.64,335.64,0,0,1,1.45-82.31,2.2,2.2,0,0,0,0-.36c.17-1.08.32-2.17.49-3.24.07-.49.14-1,.23-1.45.13-.9.28-1.81.43-2.71.21-1.3.44-2.61.67-3.92q1.05-5.9,2.32-11.81-1,4.69-1.74,9.41c-.37,2.22-.72,4.45-1,6.68-.22,1.62-.43,3.23-.61,4.84-.14,1.17-.27,2.35-.38,3.51-.15,1.35-.27,2.71-.38,4.07s-.2,2.41-.29,3.62c0,.62-.09,1.25-.11,1.87-.07.88-.12,1.76-.16,2.64-.07,1.35-.14,2.71-.17,4.06s-.09,2.64-.11,3.95c0,1.74,0,3.48,0,5.22l0,2.71c0,.37,0,.74,0,1.12,0,1,0,2,.08,3,0,.13,0,.26,0,.4,0,1.14.08,2.27.14,3.39,0,.52,0,1,.08,1.56,0,.8.08,1.6.14,2.39,0,.36,0,.72.07,1.08.07,1.08.15,2.17.25,3.25.1,1.33.22,2.66.36,4,.1,1,.2,2,.32,3s.26,2.26.4,3.38l.06.44c.08.71.18,1.41.28,2.11.13,1,.26,1.89.4,2.84.17,1.15.35,2.3.54,3.44l.21,1.25q.26,1.53.54,3.06c0,.1,0,.19.06.29.16,1,.35,1.92.54,2.88s.33,1.66.51,2.49c.06.33.13.66.2,1,.19.92.39,1.83.6,2.75.36,1.62.75,3.25,1.14,4.86.23.95.48,1.9.72,2.86.1.37.2.74.29,1.1.28,1.07.56,2.12.86,3.18s.59,2.08.89,3.12c.13.46.27.92.41,1.37.22.76.45,1.53.7,2.29.1.35.2.69.32,1,.31,1,.64,2,1,3l.15.5c.32.95.64,1.91,1,2.87.12.38.25.76.39,1.13.27.8.55,1.59.85,2.39l.48,1.32c.29.8.59,1.59.9,2.38.15.41.31.81.46,1.2.3.79.6,1.57.93,2.36.14.37.29.74.44,1.09.4,1,.81,2,1.25,3s.86,2.07,1.32,3.1c.14.31.28.62.41.93.44,1,.89,2,1.35,3s1,2.16,1.52,3.24c.11.23.21.46.33.68.45,1,.93,1.94,1.41,2.91l.14.25c.53,1.09,1.07,2.17,1.64,3.25a.09.09,0,0,0,0,.06c.56,1.12,1.16,2.24,1.77,3.36s1.2,2.25,1.84,3.37,1.23,2.21,1.86,3.3a.62.62,0,0,1,.11.19c.54.92,1.08,1.84,1.63,2.75.86,1.45,1.75,2.9,2.64,4.32.54.89,1.09,1.75,1.65,2.6.68,1.09,1.38,2.16,2.1,3.22s1.29,2,2,2.91l.77,1.12c.52.76,1.06,1.51,1.59,2.26a1,1,0,0,1,.08.11c.72,1,1.46,2,2.2,3s1.52,2.07,2.3,3.07q4.77,6.29,9.95,12.26c.75.87,1.51,1.72,2.27,2.57q2.9,3.25,5.92,6.4,2.27,2.39,4.61,4.69l.08.08c1.84,1.8,3.71,3.58,5.59,5.34A242.77,242.77,0,0,0,578.27,538.2h0c.13-.46.25-.92.36-1.39l.08-.33c.29-1.14.57-2.29.82-3.44l.08-.33c.1-.46.2-.92.29-1.37.14-.62.27-1.23.39-1.84q.53-2.58.94-5.16c.19-1.16.38-2.32.53-3.49v-.06c.09-.57.16-1.14.23-1.71a148.72,148.72,0,0,0,.52-33.77c-.06-.58-.12-1.18-.18-1.78s-.13-1.18-.21-1.77l-.18-1.44c-.2-1.56-.43-3.11-.69-4.66-.17-1.09-.37-2.18-.58-3.27s-.44-2.35-.7-3.52c-.11-.58-.24-1.17-.38-1.75-.26-1.17-.53-2.32-.83-3.48a148.17,148.17,0,0,0-10.24-28.42c-.25-.53-.51-1.07-.77-1.59s-.52-1.06-.8-1.59-.53-1-.81-1.57-.54-1-.83-1.56-.55-1-.85-1.56c-.49-.9-1-1.79-1.51-2.68A241.45,241.45,0,0,1,596.8,539Z" transform="translate(-97.52 -164.55)"/><path class="cls-8" d="M718.26,632.81l-.45,2c-.28,1.17-.57,2.34-.87,3.5-.18.74-.37,1.5-.57,2.25-.13.48-.25,1-.39,1.47-.29,1.09-.6,2.16-.9,3.25s-.71,2.45-1.08,3.68-.74,2.42-1.13,3.62a.08.08,0,0,1,0,.07c-.32,1-.64,2-1,3s-.62,1.85-.94,2.77-.54,1.53-.81,2.29c-.41,1.15-.82,2.29-1.25,3.42-.25.68-.5,1.35-.76,2s-.4,1-.61,1.54c-.38,1-.78,2-1.19,3s-.83,2-1.25,3c-.16.36-.31.73-.46,1.08-.3.7-.61,1.41-.92,2.11s-.55,1.26-.85,1.89c-.17.41-.35.79-.53,1.19-.37.84-.76,1.66-1.15,2.48-.17.37-.34.73-.52,1.08-.35.76-.71,1.51-1.09,2.26-.24.52-.49,1-.75,1.54s-.56,1.14-.86,1.71-.59,1.16-.9,1.75c-.37.74-.77,1.48-1.16,2.22-.13.26-.28.52-.42.79L694.25,696c-.36.67-.74,1.33-1.11,2-.52.94-1,1.88-1.59,2.81l-1.12,1.92-1,1.75c-.45.75-.91,1.51-1.39,2.27-.1.17-.22.35-.33.52-.46.76-.93,1.51-1.41,2.24-.32.54-.67,1.06-1,1.59L684,713c-.23.39-.48.76-.74,1.14-.62.91-1.24,1.84-1.86,2.74l-.13.2-1.79,2.55-.74,1q-1,1.41-2,2.82L675,725.71c-.42.57-.85,1.13-1.3,1.69a4.11,4.11,0,0,1-.27.35c-.68.89-1.37,1.76-2.07,2.63s-1.3,1.63-2,2.44c-.83,1-1.69,2-2.55,3.06-.72.85-1.45,1.7-2.18,2.54-.2.24-.42.48-.64.72-.67.78-1.35,1.54-2,2.3l-.49.55c-.81.89-1.63,1.78-2.45,2.65-.09.09-.16.18-.25.26-.69.74-1.38,1.47-2.08,2.2-.25.27-.51.53-.77.8-.63.64-1.26,1.3-1.9,1.94l-1,1c-.89.89-1.79,1.76-2.69,2.64s-2,1.86-2.94,2.77-2,1.84-3,2.74c-.64.59-1.3,1.19-2,1.77L641,762c-.9.8-1.82,1.59-2.76,2.36s-2.08,1.75-3.14,2.6c-.9.76-1.83,1.48-2.75,2.22-1.27,1-2.56,2-3.86,3-1.79,1.36-3.6,2.69-5.44,4q-3.75,2.68-7.64,5.26l-.13.08-.12.09h0l-.05,0-.45.29c-.1.08-.21.14-.33.22a1.82,1.82,0,0,1-.23.15l-2,1.26s0,0,0,0c-1.1.69-2.2,1.38-3.31,2.06q-3.21,2-6.46,3.87-5.28,3.09-10.61,6l-.33.18c-1.22.66-2.43,1.3-3.65,1.93l-.21.11c-.88.46-1.75.92-2.63,1.35-1.17.6-2.34,1.19-3.51,1.76q-5.27,2.6-10.63,5c-1.18.54-2.38,1.07-3.57,1.59a335.56,335.56,0,0,1-33.08,12.45,331,331,0,0,1-34.38,8.93c-2.38.49-4.79,1-7.19,1.39-8,1.45-16,2.59-24,3.45a336.19,336.19,0,0,1-82.32-1.45l-.34,0-3.33-.49-1.19-.19-2.89-.46-3.93-.68q-5.9-1-11.81-2.31c3.15.64,6.28,1.22,9.41,1.73,2.24.38,4.46.71,6.69,1,1.61.22,3.23.42,4.84.6,1.17.14,2.34.27,3.51.38,1.36.15,2.72.27,4.07.39s2.41.2,3.61.28l1.87.12,2.64.15c1.35.07,2.7.13,4.06.17s2.69.09,4,.11,2.5,0,3.76,0h1.38l2.7,0c.38,0,.75,0,1.12,0,1,0,2,0,3-.08a1.38,1.38,0,0,0,.35,0c1.2,0,2.41-.08,3.62-.14l.72,0c1,0,2.05-.11,3.08-.18l1-.06c1.12-.07,2.23-.16,3.34-.25,1.33-.11,2.65-.23,4-.37,1-.1,2.07-.2,3.11-.33s2.22-.24,3.33-.39a3.11,3.11,0,0,0,.44-.06c.7-.07,1.41-.18,2.11-.28.94-.12,1.89-.26,2.84-.4,1.15-.17,2.29-.35,3.44-.54l1.25-.2,3.05-.54.24,0c1.09-.19,2.18-.41,3.25-.62.45-.08.9-.17,1.33-.27.73-.14,1.47-.29,2.2-.46s1.23-.25,1.84-.4c.86-.18,1.71-.38,2.58-.58l.61-.15c.86-.19,1.73-.41,2.58-.61l2-.5,2.16-.57,3.11-.85,2.18-.62c.81-.23,1.61-.47,2.42-.72l.87-.26c.79-.24,1.59-.49,2.38-.75l1.87-.6c.62-.2,1.22-.39,1.82-.61s1.09-.36,1.62-.55c.8-.25,1.58-.53,2.37-.82l1.12-.4c.87-.3,1.72-.61,2.58-.94.41-.15.81-.3,1.21-.47.65-.23,1.3-.48,1.94-.74s1.43-.55,2.14-.84l1.09-.44c1-.4,2-.81,3-1.24s2-.84,3-1.27l1.52-.67c.65-.28,1.31-.58,2-.89q1.65-.74,3.3-1.53c.73-.33,1.46-.68,2.18-1,.88-.42,1.76-.84,2.63-1.29s1.88-.94,2.81-1.42l.06,0c1.12-.58,2.25-1.17,3.36-1.77s2.25-1.21,3.37-1.84l2.93-1.66,1.31-.77c.67-.38,1.34-.78,2-1.18,1-.6,2.06-1.23,3.08-1.86.59-.36,1.17-.72,1.74-1.09s1.37-.86,2.05-1.3l.14-.09c1-.63,2-1.27,2.95-1.92s1.76-1.18,2.63-1.78l2.93-2c.12-.09.26-.17.37-.27.63-.44,1.26-.88,1.87-1.33s1.15-.83,1.72-1.25l.37-.27,2.79-2.09q7.5-5.7,14.54-12c.66-.59,1.32-1.17,2-1.77q5.37-4.85,10.41-10,2.25-2.28,4.42-4.64a242.79,242.79,0,0,0-118.3-400.09l-1.86-.48c-1.37-.34-2.73-.67-4.11-1s-2.48-.54-3.72-.79l-1.16-.22-1.49-.27c-1.58-.29-3.18-.54-4.78-.78l-1.28-.18L452,351l-1.77-.22-1.76-.19q-6.24-.66-12.41-.79a.09.09,0,0,1-.07,0c-1.17,0-2.32,0-3.49,0l-1.78,0c-1.19,0-2.38,0-3.57.08-.59,0-1.19.06-1.78.08-1.2.06-2.39.13-3.57.22l-1.78.14c-.6.05-1.2.1-1.79.17-1.19.11-2.37.24-3.56.39-.59.07-1.18.14-1.78.23l-1.08.14-1.18.18-1.79.27-1.77.3c-1.17.21-2.35.43-3.53.67-.58.1-1.16.22-1.75.36-4.63,1-9.26,2.18-13.83,3.63a140,140,0,0,0-13.34,4.91c-.55.22-1.1.45-1.64.7-1.63.7-3.24,1.44-4.85,2.22-.53.24-1.06.5-1.59.77s-1.06.52-1.58.79-1.05.54-1.57.81l-1.57.83-1.56.86c-.89.48-1.79,1-2.68,1.51A242.86,242.86,0,0,1,724.19,569.25q.13,3.19.17,6.41.09,7.23-.26,14.46c0,.86-.08,1.74-.14,2.63q-.54,9.4-1.82,18.74c-.15,1.16-.31,2.31-.49,3.45,0,.16,0,.31-.07.46-.1.69-.21,1.4-.33,2.09s-.25,1.51-.38,2.26c0,.15,0,.31-.07.46-.21,1.17-.42,2.34-.64,3.51s-.4,2.08-.6,3.12-.48,2.29-.73,3.44l0,.16C718.63,631.24,718.45,632,718.26,632.81Z" transform="translate(-97.52 -164.55)"/><circle class="cls-9" cx="728.56" cy="594.51" r="76.39"/></svg>