<svg width="256" height="256" viewBox="0 0 256 256" fill="none" xmlns="http://www.w3.org/2000/svg">
<rect x="21.6143" y="163.502" width="136.801" height="8.69501" rx="4.34751" transform="rotate(-45.6553 21.6143 163.502)" fill="#14ACB6"/>
<rect x="55.8379" y="195.962" width="136.801" height="8.69501" rx="4.34751" transform="rotate(-45.6553 55.8379 195.962)" fill="#14ACB6"/>
<rect x="90.2476" y="228.243" width="136.801" height="8.69501" rx="4.3475" transform="rotate(-45.6553 90.2476 228.243)" fill="#14ACB6"/>
<rect x="52.8086" y="165.307" width="95.6451" height="5.79667" rx="2.89834" transform="rotate(-45.6553 52.8086 165.307)" fill="#14ACB6"/>
<rect x="87.2183" y="197.588" width="95.6451" height="5.79667" rx="2.89834" transform="rotate(-45.6553 87.2183 197.588)" fill="#14ACB6"/>
<path d="M188.224 72.3153C187.119 72.328 186.01 71.9196 185.159 71.0872C171.155 57.4001 151.263 51.4237 131.946 55.1168C129.597 55.5544 127.345 54.0287 126.899 51.6886C126.453 49.3484 127.987 47.0892 130.327 46.6413C152.418 42.4264 175.169 49.2571 191.19 64.916C192.894 66.5809 192.925 69.314 191.26 71.0174C190.428 71.8691 189.328 72.3027 188.224 72.3153Z" fill="#14ACB6"/>
<path d="M205.553 179.086C204.449 179.099 203.34 178.69 202.488 177.858C200.785 176.193 200.754 173.46 202.419 171.757C217.861 155.959 226.227 135.092 225.974 113.001C225.721 90.9091 216.88 70.2394 201.081 54.7972C168.466 22.9216 116 23.52 84.1214 56.135C82.4566 57.84 79.7234 57.8713 78.0218 56.2047C76.3167 54.5399 76.2855 51.8085 77.952 50.1051C113.154 14.087 171.096 13.426 207.112 48.6277C224.559 65.6802 234.322 88.5069 234.601 112.902C234.88 137.297 225.642 160.341 208.59 177.788C207.757 178.64 206.658 179.073 205.553 179.086Z" fill="#14ACB6"/>
</svg>
