<svg width="100%" height="100%" viewBox="0 0 147 147" xmlns="http://www.w3.org/2000/svg">
  <path d="m42.4214,39.655c-24.4057,0 -42.1554,13.1721 -42.1554,33.845c0,20.5814 18.4892,33.845 42.1554,33.845c23.6662,0 38.1803,-11.6171 38.7349,-28.7225l-21.0777,-0.4574c-0.9244,9.3303 -9.1059,15.1845 -17.6572,15.1845c-11.7406,0 -20.4306,-7.5922 -20.4306,-19.8496c0,-12.2574 8.69,-19.9868 20.4306,-20.2155c8.5513,-0.183 16.9177,5.9457 17.4723,15.276l21.0777,-0.6403c-0.4622,-16.8311 -14.1442,-28.2652 -38.55,-28.2652zm48.8446,2l55.468,0l0,64.0311l-55.468,0l0,-64.0311z" clip-rule="evenodd" fill-rule="evenodd"/>
</svg>
